<?xml version="1.0" encoding="utf-8"?>
<!-- Generated by IcoMoon.io -->
<!DOCTYPE svg PUBLIC "-//W3C//DTD SVG 1.1//EN" "http://www.w3.org/Graphics/SVG/1.1/DTD/svg11.dtd">
<svg version="1.1" xmlns="http://www.w3.org/2000/svg" xmlns:xlink="http://www.w3.org/1999/xlink" width="32" height="32" viewBox="0 0 32 32">
<path d="M28.8 4.4h-25.6c-1.76 0-3.2 1.44-3.2 3.2v16c0 1.76 1.44 3.2 3.2 3.2h25.6c1.76 0 3.2-1.44 3.2-3.2v-16c0-1.76-1.44-3.2-3.2-3.2zM28.8 23.6h-25.6v-9.6h25.6v9.6zM28.8 9.2h-25.6v-1.6h25.6v1.6zM6.4 17.36v0.96h0.96v-0.96h-0.96zM12.16 19.28v0.96h1.92v-0.96h0.96v-0.96h0.96v-0.96h-1.92v0.96h-0.96v0.96h-0.96zM16 20.24v-0.96h-0.96v0.96h0.96zM11.2 20.24v-0.96h-1.92v0.96h1.92zM12.16 18.32h0.96v-0.96h-1.92v1.92h0.96v-0.96zM8.32 19.28h0.96v-0.96h0.96v-0.96h-1.92v0.96h-0.96v0.96h-0.96v0.96h1.92v-0.96z" fill="#444444"></path>
</svg>
