<?xml version="1.0" encoding="utf-8"?>
<!-- Generated by IcoMoon.io -->
<!DOCTYPE svg PUBLIC "-//W3C//DTD SVG 1.1//EN" "http://www.w3.org/Graphics/SVG/1.1/DTD/svg11.dtd">
<svg version="1.1" xmlns="http://www.w3.org/2000/svg" xmlns:xlink="http://www.w3.org/1999/xlink" width="32" height="32" viewBox="0 0 32 32">
<path d="M27.98 5.616l-2.162-2.162 2.546-2.545c0 0 2.182-0.045 2.182 2.137l-2.566 2.57zM4.364 6.727v20.364h20.364v-13.818l2.909-2.909v16.727c0 1.606-1.303 2.909-2.909 2.909h-20.364c-1.606 0-2.909-1.303-2.909-2.909v-20.364c0-1.606 1.303-2.909 2.909-2.909h16.727l-2.909 2.909h-13.818zM11.636 19.818v-2.182l1.091-1.091 2.18 2.18-1.089 1.092h-2.182zM26.528 7.073l-10.895 10.924-2.179-2.179 10.909-10.909 2.164 2.164z" fill="#444444"></path>
</svg>
