<?xml version="1.0" encoding="utf-8"?>
<!-- Generated by IcoMoon.io -->
<!DOCTYPE svg PUBLIC "-//W3C//DTD SVG 1.1//EN" "http://www.w3.org/Graphics/SVG/1.1/DTD/svg11.dtd">
<svg version="1.1" xmlns="http://www.w3.org/2000/svg" xmlns:xlink="http://www.w3.org/1999/xlink" width="32" height="32" viewBox="0 0 32 32">
<path d="M16 1.84c-7.598 0-13.76 6.162-13.76 13.76 0 7.6 6.162 13.76 13.76 13.76 7.6 0 13.76-6.16 13.76-13.76 0-7.598-6.16-13.76-13.76-13.76zM17.12 26.744v-6.184h-2.24v6.184c-5.291-0.525-9.498-4.733-10.024-10.024h6.184v-2.24h-6.184c0.526-5.291 4.733-9.499 10.024-10.024v6.184h2.24v-6.184c5.293 0.525 9.499 4.733 10.024 10.024h-6.184v2.24h6.184c-0.525 5.291-4.731 9.499-10.024 10.024z" fill="#444444"></path>
</svg>
