<?xml version="1.0" encoding="utf-8"?>
<!-- Generated by IcoMoon.io -->
<!DOCTYPE svg PUBLIC "-//W3C//DTD SVG 1.1//EN" "http://www.w3.org/Graphics/SVG/1.1/DTD/svg11.dtd">
<svg version="1.1" xmlns="http://www.w3.org/2000/svg" xmlns:xlink="http://www.w3.org/1999/xlink" width="32" height="32" viewBox="0 0 32 32">
<path d="M22.958 20.643l-4.413-5.043 4.413-5.043c0.75-0.75 0.75-1.966 0-2.715s-1.966-0.749-2.715 0l-4.243 4.85-4.242-4.848c-0.75-0.75-1.966-0.75-2.715 0s-0.749 1.966 0 2.715l4.411 5.042-4.413 5.043c-0.749 0.75-0.749 1.963 0 2.712 0.75 0.75 1.966 0.75 2.715 0l4.243-4.846 4.242 4.846c0.75 0.75 1.966 0.75 2.715 0s0.75-1.962 0.002-2.712z" fill="#444444"></path>
</svg>
