<?xml version="1.0" encoding="utf-8"?>
<!-- Generated by IcoMoon.io -->
<!DOCTYPE svg PUBLIC "-//W3C//DTD SVG 1.1//EN" "http://www.w3.org/Graphics/SVG/1.1/DTD/svg11.dtd">
<svg version="1.1" xmlns="http://www.w3.org/2000/svg" xmlns:xlink="http://www.w3.org/1999/xlink" width="32" height="32" viewBox="0 0 32 32">
<path d="M29.714 10.929q0-1.446-0.384-2.554t-0.982-1.759-1.455-1.063-1.679-0.554-1.75-0.143-2 0.455-1.973 1.143-1.545 1.286-1.071 1.098q-0.321 0.393-0.875 0.393t-0.875-0.393q-0.429-0.5-1.071-1.098t-1.545-1.286-1.973-1.143-2-0.455-1.75 0.143-1.679 0.554-1.455 1.063-0.982 1.759-0.384 2.554q0 3 3.339 6.339l10.375 10 10.357-9.982q3.357-3.357 3.357-6.357zM32 10.929q0 3.946-4.089 8.036l-11.125 10.714q-0.321 0.321-0.786 0.321t-0.786-0.321l-11.143-10.75q-0.179-0.143-0.491-0.464t-0.991-1.17-1.214-1.741-0.955-2.161-0.42-2.464q0-3.929 2.268-6.143t6.268-2.214q1.107 0 2.259 0.384t2.143 1.036 1.705 1.223 1.357 1.214q0.643-0.643 1.357-1.214t1.705-1.223 2.143-1.036 2.259-0.384q4 0 6.268 2.214t2.268 6.143z" fill="#444444"></path>
</svg>
