<?xml version="1.0" encoding="utf-8"?>
<!-- Generated by IcoMoon.io -->
<!DOCTYPE svg PUBLIC "-//W3C//DTD SVG 1.1//EN" "http://www.w3.org/Graphics/SVG/1.1/DTD/svg11.dtd">
<svg version="1.1" xmlns="http://www.w3.org/2000/svg" xmlns:xlink="http://www.w3.org/1999/xlink" width="32" height="32" viewBox="0 0 32 32">
<path d="M31.568 27.32c-2.236-5.344-6.552-7.831-9.897-8.985 1.493-2.049 2.311-5.056 2.343-8.733 0.055-6.208-5.064-7.895-7.777-7.917-2.715-0.024-7.861 1.573-7.917 7.781-0.032 3.676 0.733 6.695 2.189 8.772-3.364 1.093-7.727 3.509-10.053 8.811l-0.551 1.251 1.265 0.52c0.276 0.111 6.835 2.76 14.803 2.829 7.969 0.071 14.573-2.463 14.852-2.569l1.273-0.496-0.529-1.263zM16.204 4.351c0.532 0.011 5.187 0.237 5.143 5.228-0.035 3.995-1.121 7.032-2.976 8.335l-2.295 1.611-2.261-1.649c-1.833-1.336-2.865-4.392-2.829-8.387 0.044-4.992 4.703-5.136 5.219-5.137zM15.996 28.983c-5.395-0.047-10.197-1.396-12.455-2.143 2.44-4.273 6.575-5.943 9.749-6.583l2.785-0.561 2.775 0.608c3.164 0.697 7.269 2.439 9.636 6.752-2.265 0.709-7.080 1.975-12.491 1.927z" fill="#444444"></path>
</svg>
