<?xml version="1.0" encoding="utf-8"?>
<!-- Generated by IcoMoon.io -->
<!DOCTYPE svg PUBLIC "-//W3C//DTD SVG 1.1//EN" "http://www.w3.org/Graphics/SVG/1.1/DTD/svg11.dtd">
<svg version="1.1" xmlns="http://www.w3.org/2000/svg" xmlns:xlink="http://www.w3.org/1999/xlink" width="21" height="32" viewBox="0 0 21 32">
<path d="M20.571 12.857v2.286q0 3.946-2.634 6.866t-6.509 3.348v2.357h4.571q0.464 0 0.804 0.339t0.339 0.804-0.339 0.804-0.804 0.339h-11.429q-0.464 0-0.804-0.339t-0.339-0.804 0.339-0.804 0.804-0.339h4.571v-2.357q-3.875-0.429-6.509-3.348t-2.634-6.866v-2.286q0-0.464 0.339-0.804t0.804-0.339 0.804 0.339 0.339 0.804v2.286q0 3.304 2.348 5.652t5.652 2.348 5.652-2.348 2.348-5.652v-2.286q0-0.464 0.339-0.804t0.804-0.339 0.804 0.339 0.339 0.804zM16 6v9.143q0 2.357-1.679 4.036t-4.036 1.679-4.036-1.679-1.679-4.036v-9.143q0-2.357 1.679-4.036t4.036-1.679 4.036 1.679 1.679 4.036z" fill="#444444"></path>
</svg>
