<?xml version="1.0" encoding="utf-8"?>
<!-- Generated by IcoMoon.io -->
<!DOCTYPE svg PUBLIC "-//W3C//DTD SVG 1.1//EN" "http://www.w3.org/Graphics/SVG/1.1/DTD/svg11.dtd">
<svg version="1.1" xmlns="http://www.w3.org/2000/svg" xmlns:xlink="http://www.w3.org/1999/xlink" width="25" height="32" viewBox="0 0 25 32">
<path d="M4.839 17.161l-1.804 1.804q-0.75-1.839-0.75-3.821v-2.286q0-0.464 0.339-0.804t0.804-0.339 0.804 0.339 0.339 0.804v2.286q0 0.946 0.268 2.018zM24.732 6.411l-6.446 6.446v2.286q0 2.357-1.679 4.036t-4.036 1.679q-0.982 0-1.946-0.339l-1.714 1.714q1.732 0.911 3.661 0.911 3.304 0 5.652-2.348t2.348-5.652v-2.286q0-0.464 0.339-0.804t0.804-0.339 0.804 0.339 0.339 0.804v2.286q0 3.946-2.634 6.866t-6.509 3.348v2.357h4.571q0.464 0 0.804 0.339t0.339 0.804-0.339 0.804-0.804 0.339h-11.429q-0.464 0-0.804-0.339t-0.339-0.804 0.339-0.804 0.804-0.339h4.571v-2.357q-2.232-0.232-4.196-1.446l-4.536 4.536q-0.179 0.179-0.411 0.179t-0.411-0.179l-1.464-1.464q-0.179-0.179-0.179-0.411t0.179-0.411l22.036-22.036q0.179-0.179 0.411-0.179t0.411 0.179l1.464 1.464q0.179 0.179 0.179 0.411t-0.179 0.411zM17.946 4.054l-11.089 11.089v-9.143q0-2.357 1.679-4.036t4.036-1.679q1.821 0 3.295 1.054t2.080 2.714z" fill="#444444"></path>
</svg>
