<?xml version="1.0" encoding="utf-8"?>
<!-- Generated by IcoMoon.io -->
<!DOCTYPE svg PUBLIC "-//W3C//DTD SVG 1.1//EN" "http://www.w3.org/Graphics/SVG/1.1/DTD/svg11.dtd">
<svg version="1.1" xmlns="http://www.w3.org/2000/svg" xmlns:xlink="http://www.w3.org/1999/xlink" width="32" height="32" viewBox="0 0 32 32">
<path d="M9.312 21.891l1.888 1.888c1.229-1.229 2.927-1.992 4.8-1.992s3.571 0.763 4.8 1.992l1.888-1.888c-1.712-1.711-4.076-2.771-6.688-2.771s-4.976 1.060-6.688 2.771zM5.011 17.588l1.891 1.891c2.331-2.332 5.549-3.776 9.099-3.776s6.768 1.444 9.099 3.776l1.891-1.891c-2.812-2.812-6.697-4.552-10.989-4.552s-8.177 1.74-10.989 4.552zM16 6.953c-5.972 0-11.377 2.42-15.292 6.335l1.892 1.892c3.433-3.433 8.173-5.56 13.4-5.56s9.967 2.127 13.4 5.56l1.892-1.892c-3.915-3.915-9.32-6.335-15.292-6.335zM16 24.667c-1.104 0-2 0.896-2 2s0.896 2 2 2 2-0.896 2-2-0.896-2-2-2z" fill="#444444"></path>
</svg>
